<?xml version="1.0" standalone="no"?>
<!DOCTYPE svg PUBLIC "-//W3C//DTD SVG 20010904//EN"
 "http://www.w3.org/TR/2001/REC-SVG-20010904/DTD/svg10.dtd">
<svg version="1.0" xmlns="http://www.w3.org/2000/svg"
 width="256.000000pt" height="256.000000pt" viewBox="0 0 256.000000 256.000000"
 preserveAspectRatio="xMidYMid meet">
<metadata>
Created by potrace 1.11, written by Peter Selinger 2001-2013
</metadata>
<g transform="translate(0.000000,256.000000) scale(0.100000,-0.100000)"
fill="#000000" stroke="none">
<path d="M1095 2461 c-121 -52 -192 -96 -308 -188 -71 -57 -62 -55 -162 -38
-16 3 -61 6 -99 6 -168 0 -299 -131 -382 -381 -16 -47 -29 -87 -29 -90 -1 -3
-7 -30 -13 -60 -27 -121 -49 -271 -58 -400 -10 -119 -10 -458 -1 -525 11 -75
19 -128 24 -150 2 -11 6 -27 7 -35 6 -34 24 -97 42 -145 4 -11 8 -22 9 -25 5
-17 31 -66 36 -70 4 -3 9 -12 11 -20 2 -7 16 -27 31 -42 15 -16 25 -33 21 -40
-4 -6 -3 -8 3 -5 5 4 24 -4 41 -17 25 -18 29 -25 19 -36 -9 -9 -9 -11 0 -6 6
3 15 2 18 -4 5 -8 11 -8 19 -1 18 15 28 1 13 -17 -10 -13 -9 -14 10 -4 17 9
25 9 35 -1 7 -7 21 -13 31 -13 9 -1 26 -2 38 -3 13 -1 18 -5 13 -13 -5 -9 -2
-9 9 1 17 13 22 8 19 -20 -1 -3 5 -6 13 -6 8 0 12 3 10 7 -2 4 11 7 30 7 22 0
32 -4 28 -11 -4 -6 1 -5 10 3 20 16 23 25 4 15 -9 -6 -9 -4 0 6 11 12 16 11
28 -6 15 -19 16 -19 13 1 -2 15 3 20 22 20 14 -1 29 4 33 10 5 6 7 3 3 -7 -3
-10 0 -20 6 -24 7 -4 8 -3 4 4 -5 8 2 11 23 8 22 -2 28 0 24 11 -4 10 -9 11
-18 3 -10 -8 -15 -8 -21 1 -4 7 -3 9 4 5 6 -3 13 -2 17 4 4 6 11 8 16 5 5 -4
9 -1 9 6 0 7 3 9 7 6 3 -4 12 -2 20 4 7 6 13 8 13 5 0 -4 10 -1 23 6 28 15 49
19 41 7 -3 -5 -10 -6 -16 -3 -7 4 -8 2 -4 -5 6 -8 12 -9 20 -2 7 6 15 8 19 5
3 -3 10 5 17 18 10 21 10 21 -3 5 -13 -15 -15 -15 -20 -2 -4 8 -3 14 1 13 11
-2 59 20 66 30 3 6 14 8 24 5 13 -3 25 4 36 22 13 20 20 24 31 15 10 -8 15 -8
21 1 4 8 3 9 -4 5 -7 -4 -12 -2 -12 3 0 6 7 11 15 11 8 0 15 -5 15 -12 0 -6 3
-8 6 -5 4 4 1 13 -5 21 -9 11 -9 16 0 22 7 4 9 3 6 -3 -4 -6 0 -13 8 -16 9 -4
12 -1 9 7 -5 13 1 20 43 56 15 13 16 13 10 -4 -4 -10 -7 -20 -7 -22 0 -3 -4
-3 -9 0 -5 3 -14 0 -20 -8 -9 -10 -8 -15 3 -19 11 -4 13 -1 9 11 -3 9 -3 14 2
10 11 -11 35 11 35 32 0 10 7 24 17 31 15 13 15 12 4 -9 -7 -13 -10 -26 -7
-30 3 -3 6 0 6 7 0 7 4 10 8 7 4 -2 9 5 9 16 2 26 8 31 35 33 15 1 24 10 28
26 4 16 8 20 14 11 4 -6 12 -12 17 -12 6 0 3 7 -5 16 -22 22 -20 27 7 13 19
-11 20 -10 9 3 -10 13 -10 17 4 22 9 3 19 4 24 1 9 -6 22 23 15 35 -7 11 24
22 38 13 9 -5 9 -3 1 8 -8 11 3 27 53 75 35 33 62 56 59 49 -2 -6 0 -18 6 -26
8 -12 9 -12 5 1 -7 24 11 63 27 57 8 -3 22 3 32 14 10 11 14 20 9 19 -27 -6
-25 3 7 34 20 19 33 38 29 42 -3 4 5 1 19 -6 24 -13 24 -12 10 5 -14 17 -13
18 8 12 13 -3 21 -3 18 0 -3 4 1 14 10 24 12 13 12 19 3 25 -8 5 -10 3 -4 -6
5 -9 4 -11 -4 -6 -6 4 -9 12 -5 17 3 6 9 8 12 5 6 -7 38 36 34 47 -1 4 8 2 20
-4 20 -11 22 -11 10 3 -10 13 -10 18 -1 24 7 4 9 3 6 -4 -5 -6 0 -8 13 -5 18
5 19 7 4 17 -14 11 -14 13 -1 25 12 9 17 9 23 0 5 -8 3 -9 -6 -4 -9 6 -11 4
-6 -4 10 -15 19 -7 23 20 2 14 -1 18 -9 13 -9 -5 -9 -2 1 9 11 13 17 15 28 6
11 -9 12 -9 7 4 -4 10 6 33 24 57 23 31 31 37 36 25 3 -9 2 -13 -4 -10 -6 3
-10 1 -10 -4 0 -6 4 -11 10 -11 5 0 14 -19 21 -42 15 -60 48 -159 61 -185 6
-11 7 -27 3 -34 -5 -8 -4 -10 3 -5 11 6 16 -6 13 -27 0 -4 3 -7 9 -7 5 0 10
-9 10 -20 0 -11 5 -20 12 -20 6 0 8 -3 5 -6 -4 -4 3 -20 14 -36 12 -16 18 -35
15 -43 -3 -8 -1 -14 3 -12 10 2 58 -58 67 -86 4 -9 13 -17 20 -17 8 0 13 -3
13 -7 -3 -20 2 -30 16 -30 8 0 13 3 10 5 -3 3 1 12 8 20 10 13 9 14 -1 8 -10
-6 -12 1 -9 28 3 20 0 39 -4 42 -5 3 -5 14 1 24 7 13 7 21 0 25 -6 3 -7 14 -2
23 7 15 8 38 2 52 -8 21 -6 40 3 40 8 0 8 3 2 8 -13 9 -17 65 -5 57 9 -6 6 28
-5 45 -3 6 0 10 7 10 8 0 9 3 3 8 -12 8 -13 22 -2 40 5 6 4 12 -2 12 -6 0 -6
11 -1 31 5 16 6 37 3 46 -5 11 -3 14 6 8 10 -6 11 -3 2 13 -14 27 -14 35 2 26
8 -5 8 -2 -2 9 -7 9 -9 17 -4 17 6 0 9 12 7 27 -1 15 3 34 9 42 10 12 9 13 -3
6 -13 -8 -13 -7 -1 8 11 14 11 17 0 17 -9 0 -10 3 -4 8 6 4 10 15 11 25 2 47
5 58 13 52 5 -3 13 0 17 6 4 7 3 9 -4 5 -16 -10 -25 13 -12 29 7 8 9 15 5 15
-4 0 -2 6 4 14 7 9 8 17 2 20 -5 3 -7 15 -4 27 4 16 8 18 14 7 5 -8 6 1 2 21
-5 28 -3 33 8 26 12 -8 12 -6 0 8 -12 15 -11 17 5 17 11 0 15 3 9 8 -14 9 -12
38 1 35 7 -1 9 9 6 24 -4 20 -2 24 9 18 11 -6 11 -5 2 5 -14 15 -7 40 10 36 7
-1 9 -1 5 1 -14 8 -8 35 10 50 9 8 11 12 5 8 -9 -4 -11 -1 -7 9 3 9 11 13 18
9 7 -4 7 -2 -1 7 -9 10 -9 19 3 42 8 16 20 26 25 22 8 -4 8 0 0 13 -10 20 -6
33 11 33 5 0 6 -6 2 -12 -4 -7 -3 -9 1 -5 12 10 15 38 4 31 -5 -3 -9 0 -9 7 0
7 9 9 23 6 19 -5 20 -4 6 6 -19 15 -14 37 9 37 15 0 15 2 2 10 -14 9 -7 14 13
11 5 -1 6 3 3 8 -7 10 25 74 50 102 8 9 11 19 7 23 -4 4 0 4 9 1 9 -4 18 0 22
10 3 9 11 13 17 9 7 -4 9 -3 5 4 -3 6 1 18 10 26 8 9 11 16 6 16 -5 0 -17 -12
-27 -26 -9 -14 -19 -23 -23 -19 -4 3 -2 9 4 13 12 8 54 67 54 76 0 11 -86 6
-145 -9 -181 -46 -328 -170 -419 -351 -37 -74 -84 -222 -91 -289 -3 -22 -7
-56 -10 -75 -3 -19 -6 -54 -7 -77 -1 -23 -3 -41 -4 -40 -1 1 -35 43 -75 92
-66 80 -135 173 -164 222 -5 9 -14 22 -18 27 -104 137 -397 657 -411 730 -2 6
-9 25 -17 42 l-14 31 -60 -26z m565 -1565 c0 -3 -4 -8 -10 -11 -5 -3 -10 -1
-10 4 0 6 5 11 10 11 6 0 10 -2 10 -4z m-110 -132 c0 -8 -19 -13 -24 -6 -3 5
1 9 9 9 8 0 15 -2 15 -3z m-310 -290 c0 -8 -5 -12 -10 -9 -6 4 -8 11 -5 16 9
14 15 11 15 -7z m-706 -332 c2 -4 -4 -8 -14 -8 -10 0 -16 4 -14 8 3 4 9 8 14
8 5 0 11 -4 14 -8z m36 4 c0 -3 -4 -8 -10 -11 -5 -3 -10 -1 -10 4 0 6 5 11 10
11 6 0 10 -2 10 -4z"/>
<path d="M1831 1108 c-13 -20 -12 -22 1 -11 8 7 18 10 22 6 4 -4 4 0 0 10 -8
21 -6 21 -23 -5z"/>
<path d="M1690 919 c0 -5 5 -7 10 -4 6 3 10 8 10 11 0 2 -4 4 -10 4 -5 0 -10
-5 -10 -11z"/>
<path d="M1580 815 c-7 -9 -10 -18 -6 -22 3 -3 6 -1 6 5 0 6 6 10 13 8 6 -1 9
-1 4 1 -4 3 -5 9 -1 14 9 15 -2 10 -16 -6z"/>
<path d="M1515 720 c3 -5 8 -10 11 -10 2 0 4 5 4 10 0 6 -5 10 -11 10 -5 0 -7
-4 -4 -10z"/>
<path d="M1461 682 c-7 -13 -6 -19 2 -19 7 0 13 9 13 19 0 10 -1 18 -3 18 -1
0 -7 -8 -12 -18z"/>
<path d="M1402 630 c-18 -17 -28 -30 -22 -30 5 0 13 0 18 0 4 0 7 4 7 8 0 14
32 41 40 34 5 -4 5 -1 1 6 -9 15 -5 17 -44 -18z"/>
<path d="M1357 569 c7 -7 15 -10 18 -7 3 3 -2 9 -12 12 -14 6 -15 5 -6 -5z"/>
<path d="M1206 433 c-6 -14 -5 -15 5 -6 7 7 10 15 7 18 -3 3 -9 -2 -12 -12z"/>
<path d="M1003 293 c-3 -10 -8 -22 -11 -27 -3 -5 0 -6 5 -3 11 7 25 47 17 47
-3 0 -7 -8 -11 -17z"/>
<path d="M929 254 c-13 -16 -23 -51 -11 -39 4 4 8 11 8 16 3 22 5 23 13 11 7
-11 9 -11 14 2 9 22 -8 29 -24 10z"/>
<path d="M250 231 c0 -5 7 -12 16 -15 14 -5 15 -4 4 9 -14 17 -20 19 -20 6z"/>
<path d="M767 175 c-12 -8 -14 -15 -8 -20 6 -3 11 -1 11 5 0 7 9 9 23 5 12 -3
18 -3 12 2 -5 5 -12 11 -15 15 -3 3 -13 0 -23 -7z"/>
<path d="M427 135 c3 -8 9 -12 14 -9 12 7 11 11 -5 17 -10 4 -13 1 -9 -8z"/>
<path d="M638 143 c6 -3 10 -8 8 -12 -3 -4 4 -7 14 -7 26 0 14 22 -13 23 -12
0 -16 -1 -9 -4z"/>
</g>
</svg>
